HIERARCHY
ROOT Hips
{
	OFFSET -0.001795 -0.223333 0.028219
	CHANNELS 6 Xposition Yposition Zposition Zrotation Yrotation Xrotation 
	JOINT LeftUpLeg
	{
		OFFSET 0.069520 -0.091406 -0.006815
		CHANNELS 3 Zrotation Yrotation Xrotation
		JOINT LeftLeg
		{
			OFFSET 0.034277 -0.375199 -0.004496
			CHANNELS 3 Zrotation Yrotation Xrotation
			JOINT LeftFoot
			{
				OFFSET -0.013596 -0.397961 -0.043693
				CHANNELS 3 Zrotation Yrotation Xrotation
				JOINT LeftToe
				{
					OFFSET 0.026358 -0.055791 0.119288
					CHANNELS 3 Zrotation Yrotation Xrotation
					End Site
					{
						OFFSET 0.000000 0.000000 0.000000
					}
				}
			}
		}
	}
	JOINT RightUpLeg
	{
		OFFSET -0.067670 -0.090522 -0.004320
		CHANNELS 3 Zrotation Yrotation Xrotation
		JOINT RightLeg
		{
			OFFSET -0.038290 -0.382569 -0.008850
			CHANNELS 3 Zrotation Yrotation Xrotation
			JOINT RightFoot
			{
				OFFSET 0.015774 -0.398415 -0.042312
				CHANNELS 3 Zrotation Yrotation Xrotation
				JOINT RightToe
				{
					OFFSET -0.025372 -0.048144 0.123348
					CHANNELS 3 Zrotation Yrotation Xrotation
					End Site
					{
						OFFSET 0.000000 0.000000 0.000000
					}
				}
			}
		}
	}
	JOINT Spine
	{
		OFFSET -0.002533 0.108963 -0.026696
		CHANNELS 3 Zrotation Yrotation Xrotation
		JOINT Spine1
		{
			OFFSET 0.005487 0.135180 0.001092
			CHANNELS 3 Zrotation Yrotation Xrotation
			JOINT Spine2
			{
				OFFSET 0.001457 0.052922 0.025425
				CHANNELS 3 Zrotation Yrotation Xrotation
				JOINT Neck
				{
					OFFSET -0.002778 0.213870 -0.042857
					CHANNELS 3 Zrotation Yrotation Xrotation
					JOINT Head
					{
						OFFSET 0.005152 0.064970 0.051349
						CHANNELS 3 Zrotation Yrotation Xrotation
						End Site
						{
							OFFSET 0.000000 0.000000 0.000000
						}
					}
				}
				JOINT LeftShoulder
				{
					OFFSET 0.078845 0.121749 -0.034090
					CHANNELS 3 Zrotation Yrotation Xrotation
					JOINT LeftArm
					{
						OFFSET 0.090977 0.030469 -0.008868
						CHANNELS 3 Zrotation Yrotation Xrotation
						JOINT LeftForeArm
						{
							OFFSET 0.259612 -0.012772 -0.027456
							CHANNELS 3 Zrotation Yrotation Xrotation
							JOINT LeftHand
							{
								OFFSET 0.249234 0.008986 -0.001171
								CHANNELS 3 Zrotation Yrotation Xrotation
								End Site
								{
									OFFSET 0.000000 0.000000 0.000000
								}
							}
						}
					}
				}
				JOINT RightShoulder
				{
					OFFSET -0.081759 0.118833 -0.038615
					CHANNELS 3 Zrotation Yrotation Xrotation
					JOINT RightArm
					{
						OFFSET -0.096012 0.032551 -0.009143
						CHANNELS 3 Zrotation Yrotation Xrotation
						JOINT RightForeArm
						{
							OFFSET -0.253742 -0.013329 -0.021401
							CHANNELS 3 Zrotation Yrotation Xrotation
							JOINT RightHand
							{
								OFFSET -0.255298 0.007772 -0.005559
								CHANNELS 3 Zrotation Yrotation Xrotation
								End Site
								{
									OFFSET 0.000000 0.000000 0.000000
								}
							}
						}
					}
				}
			}
		}
	}
}
MOTION
Frames: 16
Frame Time: 0.050000
0.114171 0.927879 -0.035127 2.272296 -18.665895 -9.146089 0.488739 0.961161 7.935839 -2.837641 0.493984 -5.635744 0.204321 2.237167 8.373441 0.000000 0.000000 0.000000 -15.426389 0.973657 -0.836621 18.633997 -1.947149 12.010092 -9.887968 -23.738570 18.644764 0.000000 0.000000 0.000000 3.033573 -0.377908 28.960646 -9.370761 2.726106 -25.663905 -3.298503 8.005924 22.614497 13.677604 -4.809211 -34.344448 0.000000 0.000000 0.000000 -17.166677 -11.940941 5.557843 -40.743705 -10.547092 -3.253076 -14.726383 -25.130550 4.318074 0.000000 0.000000 0.000000 27.418169 7.112175 1.797314 52.967002 20.723810 2.152295 13.136989 30.231929 4.545709 0.000000 0.000000 0.000000 
0.111885 0.927529 -0.038062 2.571387 -19.891132 -9.402542 0.213868 1.000426 8.043193 -2.465746 0.458775 -5.585976 0.774656 3.213942 8.519056 0.000000 0.000000 0.000000 -15.697426 1.063760 -0.729439 18.997085 -1.843629 11.444676 -9.323992 -22.977213 17.936164 0.000000 0.000000 0.000000 3.178284 -0.300620 29.083904 -9.541391 2.756429 -25.677883 -3.287526 8.170576 22.507483 14.163865 -5.013275 -34.769376 0.000000 0.000000 0.000000 -16.569513 -11.912513 5.601388 -40.850761 -10.754977 -3.204146 -14.706962 -25.456120 4.391096 0.000000 0.000000 0.000000 27.023146 7.146530 1.642230 53.007611 21.314113 2.482943 12.579820 29.284256 4.206351 0.000000 0.000000 0.000000 
0.108813 0.926849 -0.040595 2.694325 -21.311876 -9.679797 0.216841 1.027681 8.094472 -2.162475 0.420569 -5.161655 1.456053 4.350463 8.389198 0.000000 0.000000 0.000000 -15.687682 1.139201 -0.607267 19.295335 -1.724027 11.036618 -8.705034 -22.106116 17.106008 0.000000 0.000000 0.000000 3.309622 -0.219487 28.874426 -9.510317 2.732163 -25.640054 -3.249348 8.468088 22.487673 14.234478 -5.103515 -34.796566 0.000000 0.000000 0.000000 -16.301210 -11.788598 5.628776 -41.041966 -11.051381 -3.140349 -14.946920 -25.550243 4.482720 0.000000 0.000000 0.000000 26.731573 7.373820 1.593147 53.102896 21.577438 2.665804 12.246230 28.148090 3.904830 0.000000 0.000000 0.000000 
0.104738 0.926109 -0.042843 2.637941 -22.217331 -9.820233 0.623930 0.998575 7.848554 -2.175866 0.406298 -4.321677 1.904559 5.092815 8.075774 0.000000 0.000000 0.000000 -15.347458 1.177453 -0.054454 19.429226 -1.578031 10.048115 -8.348592 -21.531118 16.255515 0.000000 0.000000 0.000000 3.584137 -0.218983 28.638885 -9.410464 2.696381 -25.559678 -3.231611 8.520154 22.313942 14.656714 -5.271616 -35.149790 0.000000 0.000000 0.000000 -16.136992 -11.469251 5.541030 -41.255447 -11.070634 -3.140665 -14.990365 -25.748909 4.547504 0.000000 0.000000 0.000000 26.649818 7.271276 1.351053 53.223165 21.232529 2.584770 11.987808 27.572925 3.724158 0.000000 0.000000 0.000000 
0.099618 0.925936 -0.044736 2.576237 -23.477501 -9.828359 1.251134 0.972989 7.586466 -2.455987 0.434101 -3.533410 2.446529 6.028466 8.058274 0.000000 0.000000 0.000000 -15.034258 1.233159 0.359825 19.738418 -1.404377 9.018423 -7.798872 -20.692220 15.617906 0.000000 0.000000 0.000000 3.942145 -0.208324 28.453300 -9.643217 2.740473 -25.729139 -3.318767 8.701427 22.500972 14.826787 -5.363338 -35.489817 0.000000 0.000000 0.000000 -16.247083 -11.622900 5.756180 -40.914869 -11.002647 -3.195452 -14.972238 -26.295565 4.660839 0.000000 0.000000 0.000000 27.088053 7.264173 1.123328 53.033108 21.037484 2.522078 11.907765 26.986177 3.588120 0.000000 0.000000 0.000000 
0.093953 0.925705 -0.047040 2.467160 -24.672465 -9.568817 1.971830 0.920045 7.073967 -2.761611 0.474873 -2.786740 2.960693 6.916623 8.108478 0.000000 0.000000 0.000000 -14.488702 1.256033 0.654033 19.811768 -1.189819 7.780012 -7.328109 -19.931142 14.919672 0.000000 0.000000 0.000000 4.334467 -0.231368 27.920182 -9.809336 2.767455 -25.707412 -3.230566 8.953030 22.330461 14.531339 -5.202923 -35.757191 0.000000 0.000000 0.000000 -15.969806 -11.606760 5.820705 -41.383315 -10.974748 -3.224454 -14.833619 -26.393920 4.669657 0.000000 0.000000 0.000000 27.452666 7.177460 0.850608 52.251280 20.818302 2.442383 11.728705 26.488112 3.438238 0.000000 0.000000 0.000000 
0.087483 0.925984 -0.049525 2.376088 -25.250964 -9.489669 3.085484 0.918694 6.937947 -3.693974 0.619792 -2.435980 3.067864 7.097362 8.493743 0.000000 0.000000 0.000000 -13.912838 1.246468 1.222613 19.833557 -1.027222 6.632414 -7.072848 -19.491450 14.547380 0.000000 0.000000 0.000000 4.839912 -0.325053 27.291873 -9.970469 2.812722 -25.303901 -3.382238 8.876150 21.810789 14.098415 -5.178615 -35.067140 0.000000 0.000000 0.000000 -16.620292 -11.572832 5.953952 -41.082272 -10.695655 -3.304364 -14.673329 -26.799761 4.717497 0.000000 0.000000 0.000000 28.424608 7.231760 0.622577 50.886669 20.488919 2.315647 11.341237 26.234674 3.276809 0.000000 0.000000 0.000000 
0.080511 0.925489 -0.052548 2.473363 -25.946263 -9.400700 3.936055 0.899617 6.550445 -4.418627 0.748688 -1.804094 3.290369 7.469042 8.692138 0.000000 0.000000 0.000000 -13.253118 1.228514 1.748963 19.490176 -0.828724 5.364319 -6.871949 -19.024473 13.660009 0.000000 0.000000 0.000000 5.126958 -0.369215 26.461892 -9.900513 2.791239 -24.865124 -3.390744 9.131714 21.494993 13.695046 -5.061749 -34.762331 0.000000 0.000000 0.000000 -16.830622 -11.679451 6.078133 -41.424058 -11.147645 -3.161236 -14.237878 -26.867330 4.632747 0.000000 0.000000 0.000000 29.195866 7.228218 0.441225 49.569738 20.027379 2.112126 10.806248 26.643238 3.191077 0.000000 0.000000 0.000000 
0.073074 0.924380 -0.056273 2.256320 -26.787205 -9.323157 4.990458 0.909080 6.227314 -4.836650 0.844078 -0.988271 3.590349 7.975351 8.597233 0.000000 0.000000 0.000000 -12.438805 1.175122 2.096251 19.514343 -0.682242 4.623999 -6.607176 -18.464264 12.867200 0.000000 0.000000 0.000000 5.377318 -0.383690 25.985993 -9.765553 2.744452 -24.681843 -3.039836 9.281993 21.446150 13.662454 -5.112216 -34.644670 0.000000 0.000000 0.000000 -17.039504 -11.692319 6.206706 -41.754043 -11.390421 -3.119241 -13.591784 -27.332007 4.583482 0.000000 0.000000 0.000000 29.269771 7.427010 0.376691 48.897303 19.923013 2.094780 9.736613 26.562185 2.916333 0.000000 0.000000 0.000000 
0.065549 0.922990 -0.060825 2.155318 -27.263879 -9.172049 5.791000 0.906302 5.799197 -4.983518 0.891644 -0.386168 3.765404 8.263985 8.539553 0.000000 0.000000 0.000000 -11.769680 1.133173 2.588532 19.636608 -0.504499 3.407163 -6.516334 -18.139014 12.132527 0.000000 0.000000 0.000000 5.816683 -0.461004 25.408788 -9.819719 2.753446 -24.499545 -2.997269 9.212578 21.511096 13.037335 -4.727944 -35.333796 0.000000 0.000000 0.000000 -16.996965 -11.675383 6.294979 -42.538729 -11.980188 -2.967190 -12.766086 -28.127519 4.552626 0.000000 0.000000 0.000000 29.319994 7.488987 0.226863 47.930034 19.019435 1.728518 9.204191 27.434065 2.872962 0.000000 0.000000 0.000000 
0.058123 0.922281 -0.065770 2.305346 -27.485291 -9.284123 6.542243 0.878994 4.946587 -5.454048 1.038969 1.165267 3.799966 8.294806 8.720594 0.000000 0.000000 0.000000 -11.144635 1.084244 3.196068 19.385058 -0.355876 2.304058 -6.502877 -17.939467 11.494463 0.000000 0.000000 0.000000 6.532758 -0.569843 25.291284 -10.006983 2.806731 -24.600957 -3.150166 8.750525 21.860711 12.556975 -4.605296 -35.397107 0.000000 0.000000 0.000000 -17.225741 -11.617538 6.453278 -42.853176 -12.238542 -2.969005 -12.798547 -28.838933 4.727387 0.000000 0.000000 0.000000 29.342437 7.300813 -0.146844 47.364436 18.422828 1.505876 8.779544 27.158843 2.712405 0.000000 0.000000 0.000000 
0.051176 0.920942 -0.070849 2.518620 -28.228261 -9.054477 7.137938 0.852274 3.877750 -5.809681 1.190897 2.489386 4.111679 8.791720 8.884266 0.000000 0.000000 0.000000 -10.509776 1.028567 3.039337 19.024404 -0.220370 1.674837 -6.377255 -17.495932 10.523710 0.000000 0.000000 0.000000 7.000301 -0.638993 24.167510 -9.843933 2.750960 -24.148670 -2.949430 8.589669 22.222381 10.956867 -3.920106 -35.660452 0.000000 0.000000 0.000000 -17.457240 -11.714564 6.744708 -43.707326 -13.182684 -2.717198 -12.124982 -28.859478 4.594423 0.000000 0.000000 0.000000 27.982989 7.220079 -0.382631 47.124579 17.624502 1.212530 8.915011 26.892324 2.665427 0.000000 0.000000 0.000000 
0.044770 0.920408 -0.076098 2.482177 -29.234553 -8.939266 7.605221 0.839788 2.674181 -5.518394 1.265735 4.548528 4.559724 9.495079 9.214340 0.000000 0.000000 0.000000 -9.596427 0.933522 2.876892 18.540613 -0.124845 1.444469 -6.032039 -16.787188 9.892764 0.000000 0.000000 0.000000 7.462372 -0.665381 23.732965 -9.574093 2.648554 -24.309145 -2.730428 7.999816 22.272872 9.968666 -3.690501 -35.365514 0.000000 0.000000 0.000000 -18.076914 -11.418255 6.998126 -43.882732 -13.161673 -2.823818 -12.238079 -29.000249 4.700447 0.000000 0.000000 0.000000 27.587278 7.558917 -0.658852 46.195298 16.412627 0.867973 9.313709 26.268831 2.606217 0.000000 0.000000 0.000000 
0.039050 0.919933 -0.080919 2.605304 -30.606110 -8.848176 7.836628 0.831198 1.391932 -5.160922 1.373182 6.793036 5.173977 10.437853 9.769577 0.000000 0.000000 0.000000 -8.571527 0.822645 2.258263 17.528433 -0.102843 1.910349 -5.615898 -15.836100 8.906226 0.000000 0.000000 0.000000 7.734730 -0.654017 22.887641 -9.380195 2.564915 -24.043984 -2.649115 7.587550 22.286836 8.833863 -3.421228 -34.881987 0.000000 0.000000 0.000000 -18.445613 -11.231914 7.291987 -43.634484 -13.333767 -2.831035 -13.010969 -28.473879 4.830450 0.000000 0.000000 0.000000 27.484455 7.332623 -1.346008 45.602029 14.472656 0.307492 10.493254 26.655814 2.819410 0.000000 0.000000 0.000000 
0.034407 0.919893 -0.085656 2.561959 -31.862097 -8.875051 8.339390 0.868847 -0.013036 -5.041169 1.631588 9.572977 5.631302 11.058387 10.555478 0.000000 0.000000 0.000000 -7.684541 0.731838 1.770353 16.907621 -0.093017 2.521007 -5.142633 -14.924559 8.424971 0.000000 0.000000 0.000000 8.187385 -0.645893 23.013381 -9.355853 2.530544 -24.307417 -2.968555 6.569382 22.390777 8.335364 -3.474951 -34.726351 0.000000 0.000000 0.000000 -18.749591 -11.223145 7.774393 -43.116671 -13.155982 -3.004275 -13.672880 -28.716975 5.085046 0.000000 0.000000 0.000000 27.663767 7.561458 -1.948350 44.917585 12.785713 -0.081011 11.511100 27.072987 2.983744 0.000000 0.000000 0.000000 
0.030594 0.919294 -0.089791 2.478592 -33.625945 -8.947050 9.327344 1.039783 -0.719082 -5.723852 2.129235 11.480114 6.166678 11.790894 11.317520 0.000000 0.000000 0.000000 -6.896524 0.665953 1.243027 16.474841 -0.061636 3.305345 -4.490447 -13.643208 7.825813 0.000000 0.000000 0.000000 8.670245 -0.620464 22.793027 -9.314356 2.487220 -24.306766 -3.068749 5.576440 22.641510 7.793606 -3.568659 -34.367362 0.000000 0.000000 0.000000 -19.060987 -11.188183 8.330053 -42.532150 -13.439267 -3.016824 -14.064451 -28.022003 5.058627 0.000000 0.000000 0.000000 26.685271 7.597573 -2.580078 44.877119 11.105975 -0.497783 13.444857 27.180740 3.279113 0.000000 0.000000 0.000000 
